<mxfile host="app.diagrams.net" modified="2022-04-11T02:16:20.280Z" agent="5.0 (Windows NT 10.0; Win64; x64) AppleWebKit/537.36 (KHTML, like Gecko) Chrome/90.0.4430.93 Safari/537.36" etag="6t190In0rxv1kue_jgg8" version="17.4.0" type="github">
  <diagram id="_nkdASh_PaoiYqTXnI3_" name="Page-1">
    <mxGraphModel dx="1422" dy="794" grid="1" gridSize="10" guides="1" tooltips="1" connect="1" arrows="1" fold="1" page="1" pageScale="1" pageWidth="827" pageHeight="1169" math="0" shadow="0">
      <root>
        <mxCell id="0" />
        <mxCell id="1" parent="0" />
        <mxCell id="OFzGjVGw1MdKmsN7BO76-14" value="" style="edgeStyle=orthogonalEdgeStyle;rounded=0;orthogonalLoop=1;jettySize=auto;html=1;" edge="1" parent="1" source="OFzGjVGw1MdKmsN7BO76-1" target="OFzGjVGw1MdKmsN7BO76-13">
          <mxGeometry relative="1" as="geometry" />
        </mxCell>
        <mxCell id="OFzGjVGw1MdKmsN7BO76-1" value="创建Job" style="rounded=0;whiteSpace=wrap;html=1;" vertex="1" parent="1">
          <mxGeometry x="210" y="220" width="120" height="50" as="geometry" />
        </mxCell>
        <mxCell id="OFzGjVGw1MdKmsN7BO76-31" value="" style="edgeStyle=orthogonalEdgeStyle;rounded=0;orthogonalLoop=1;jettySize=auto;html=1;" edge="1" parent="1" source="OFzGjVGw1MdKmsN7BO76-13" target="OFzGjVGw1MdKmsN7BO76-30">
          <mxGeometry relative="1" as="geometry" />
        </mxCell>
        <mxCell id="OFzGjVGw1MdKmsN7BO76-13" value="设置Job参数配置" style="whiteSpace=wrap;html=1;rounded=0;" vertex="1" parent="1">
          <mxGeometry x="210" y="310" width="120" height="50" as="geometry" />
        </mxCell>
        <mxCell id="OFzGjVGw1MdKmsN7BO76-19" value="" style="edgeStyle=orthogonalEdgeStyle;rounded=0;orthogonalLoop=1;jettySize=auto;html=1;" edge="1" parent="1" source="OFzGjVGw1MdKmsN7BO76-16" target="OFzGjVGw1MdKmsN7BO76-18">
          <mxGeometry relative="1" as="geometry" />
        </mxCell>
        <mxCell id="OFzGjVGw1MdKmsN7BO76-16" value="管理员在原Jenkins上创建job" style="whiteSpace=wrap;html=1;rounded=1;" vertex="1" parent="1">
          <mxGeometry x="210" y="110" width="120" height="60" as="geometry" />
        </mxCell>
        <mxCell id="OFzGjVGw1MdKmsN7BO76-18" value="使用者在CI系统上执行Job" style="whiteSpace=wrap;html=1;rounded=1;" vertex="1" parent="1">
          <mxGeometry x="460" y="110" width="120" height="60" as="geometry" />
        </mxCell>
        <mxCell id="OFzGjVGw1MdKmsN7BO76-23" value="" style="endArrow=classic;html=1;rounded=0;entryX=0.5;entryY=0;entryDx=0;entryDy=0;dashed=1;" edge="1" parent="1" target="OFzGjVGw1MdKmsN7BO76-1">
          <mxGeometry width="50" height="50" relative="1" as="geometry">
            <mxPoint x="270" y="180" as="sourcePoint" />
            <mxPoint x="600" y="390" as="targetPoint" />
          </mxGeometry>
        </mxCell>
        <mxCell id="OFzGjVGw1MdKmsN7BO76-26" value="" style="edgeStyle=orthogonalEdgeStyle;rounded=0;orthogonalLoop=1;jettySize=auto;html=1;dashed=1;" edge="1" parent="1" source="OFzGjVGw1MdKmsN7BO76-24" target="OFzGjVGw1MdKmsN7BO76-25">
          <mxGeometry relative="1" as="geometry" />
        </mxCell>
        <mxCell id="OFzGjVGw1MdKmsN7BO76-24" value="用户选择参数执行Job" style="whiteSpace=wrap;html=1;rounded=0;" vertex="1" parent="1">
          <mxGeometry x="460" y="220" width="120" height="60" as="geometry" />
        </mxCell>
        <mxCell id="OFzGjVGw1MdKmsN7BO76-28" value="" style="edgeStyle=orthogonalEdgeStyle;rounded=0;orthogonalLoop=1;jettySize=auto;html=1;dashed=1;" edge="1" parent="1" source="OFzGjVGw1MdKmsN7BO76-25" target="OFzGjVGw1MdKmsN7BO76-27">
          <mxGeometry relative="1" as="geometry" />
        </mxCell>
        <mxCell id="OFzGjVGw1MdKmsN7BO76-25" value="经过CI Sever处理，转发给Jenkins Server" style="whiteSpace=wrap;html=1;rounded=0;" vertex="1" parent="1">
          <mxGeometry x="460" y="310" width="120" height="60" as="geometry" />
        </mxCell>
        <mxCell id="OFzGjVGw1MdKmsN7BO76-27" value="Jenkins 真正去执行Job" style="whiteSpace=wrap;html=1;rounded=0;" vertex="1" parent="1">
          <mxGeometry x="460" y="400" width="120" height="60" as="geometry" />
        </mxCell>
        <mxCell id="OFzGjVGw1MdKmsN7BO76-29" value="" style="endArrow=classic;html=1;rounded=0;dashed=1;entryX=0.5;entryY=0;entryDx=0;entryDy=0;" edge="1" parent="1" target="OFzGjVGw1MdKmsN7BO76-24">
          <mxGeometry width="50" height="50" relative="1" as="geometry">
            <mxPoint x="520" y="180" as="sourcePoint" />
            <mxPoint x="740" y="190" as="targetPoint" />
          </mxGeometry>
        </mxCell>
        <mxCell id="OFzGjVGw1MdKmsN7BO76-30" value="Job创建完成" style="whiteSpace=wrap;html=1;rounded=0;" vertex="1" parent="1">
          <mxGeometry x="210" y="400" width="120" height="50" as="geometry" />
        </mxCell>
      </root>
    </mxGraphModel>
  </diagram>
</mxfile>
